<svg id="mermaid-1787270281363" width="100%" xmlns="http://www.w3.org/2000/svg" xmlns:xlink="http://www.w3.org/1999/xlink" style="max-width: 2592.6328125px;" viewBox="-32.28125 -8 2592.6328125 982.9652099609375" role="graphics-document document" aria-roledescription="flowchart-v2"><style>#mermaid-1787270281363{font-family:ui-sans-serif,system-ui,sans-serif;font-size:13px;fill:#333;}#mermaid-1787270281363 .error-icon{fill:#552222;}#mermaid-1787270281363 .error-text{fill:#552222;stroke:#552222;}#mermaid-1787270281363 .edge-thickness-normal{stroke-width:2px;}#mermaid-1787270281363 .edge-thickness-thick{stroke-width:3.5px;}#mermaid-1787270281363 .edge-pattern-solid{stroke-dasharray:0;}#mermaid-1787270281363 .edge-pattern-dashed{stroke-dasharray:3;}#mermaid-1787270281363 .edge-pattern-dotted{stroke-dasharray:2;}#mermaid-1787270281363 .marker{fill:#0284c7;stroke:#0284c7;}#mermaid-1787270281363 .marker.cross{stroke:#0284c7;}#mermaid-1787270281363 svg{font-family:ui-sans-serif,system-ui,sans-serif;font-size:13px;}#mermaid-1787270281363 .label{font-family:ui-sans-serif,system-ui,sans-serif;color:#333;}#mermaid-1787270281363 .cluster-label text{fill:#333;}#mermaid-1787270281363 .cluster-label span,#mermaid-1787270281363 p{color:#333;}#mermaid-1787270281363 .label text,#mermaid-1787270281363 span,#mermaid-1787270281363 p{fill:#333;color:#333;}#mermaid-1787270281363 .node rect,#mermaid-1787270281363 .node circle,#mermaid-1787270281363 .node ellipse,#mermaid-1787270281363 .node polygon,#mermaid-1787270281363 .node path{fill:#ECECFF;stroke:#9370DB;stroke-width:1px;}#mermaid-1787270281363 .flowchart-label text{text-anchor:middle;}#mermaid-1787270281363 .node .katex path{fill:#000;stroke:#000;stroke-width:1px;}#mermaid-1787270281363 .node .label{text-align:center;}#mermaid-1787270281363 .node.clickable{cursor:pointer;}#mermaid-1787270281363 .arrowheadPath{fill:#333333;}#mermaid-1787270281363 .edgePath .path{stroke:#0284c7;stroke-width:2.0px;}#mermaid-1787270281363 .flowchart-link{stroke:#0284c7;fill:none;}#mermaid-1787270281363 .edgeLabel{background-color:#ffffff;text-align:center;}#mermaid-1787270281363 .edgeLabel rect{opacity:0.5;background-color:#ffffff;fill:#ffffff;}#mermaid-1787270281363 .labelBkg{background-color:rgba(255, 255, 255, 0.5);}#mermaid-1787270281363 .cluster rect{fill:#f8fafc;stroke:#94a3b8;stroke-width:1px;}#mermaid-1787270281363 .cluster text{fill:#333;}#mermaid-1787270281363 .cluster span,#mermaid-1787270281363 p{color:#333;}#mermaid-1787270281363 div.mermaidTooltip{position:absolute;text-align:center;max-width:200px;padding:2px;font-family:ui-sans-serif,system-ui,sans-serif;font-size:12px;background:#f8fafc;border:1px solid #aaaa33;border-radius:2px;pointer-events:none;z-index:100;}#mermaid-1787270281363 .flowchartTitleText{text-anchor:middle;font-size:18px;fill:#333;}#mermaid-1787270281363 :root{--mermaid-font-family:"trebuchet ms",verdana,arial,sans-serif;}</style><g><marker id="mermaid-1787270281363_flowchart-pointEnd" class="marker flowchart" viewBox="0 0 10 10" refX="6" refY="5" markerUnits="userSpaceOnUse" markerWidth="12" markerHeight="12" orient="auto"><path d="M 0 0 L 10 5 L 0 10 z" class="arrowMarkerPath" style="stroke-width: 1; stroke-dasharray: 1, 0;"></path></marker><marker id="mermaid-1787270281363_flowchart-pointStart" class="marker flowchart" viewBox="0 0 10 10" refX="4.5" refY="5" markerUnits="userSpaceOnUse" markerWidth="12" markerHeight="12" orient="auto"><path d="M 0 5 L 10 10 L 10 0 z" class="arrowMarkerPath" style="stroke-width: 1; stroke-dasharray: 1, 0;"></path></marker><marker id="mermaid-1787270281363_flowchart-circleEnd" class="marker flowchart" viewBox="0 0 10 10" refX="11" refY="5" markerUnits="userSpaceOnUse" markerWidth="11" markerHeight="11" orient="auto"><circle cx="5" cy="5" r="5" class="arrowMarkerPath" style="stroke-width: 1; stroke-dasharray: 1, 0;"></circle></marker><marker id="mermaid-1787270281363_flowchart-circleStart" class="marker flowchart" viewBox="0 0 10 10" refX="-1" refY="5" markerUnits="userSpaceOnUse" markerWidth="11" markerHeight="11" orient="auto"><circle cx="5" cy="5" r="5" class="arrowMarkerPath" style="stroke-width: 1; stroke-dasharray: 1, 0;"></circle></marker><marker id="mermaid-1787270281363_flowchart-crossEnd" class="marker cross flowchart" viewBox="0 0 11 11" refX="12" refY="5.2" markerUnits="userSpaceOnUse" markerWidth="11" markerHeight="11" orient="auto"><path d="M 1,1 l 9,9 M 10,1 l -9,9" class="arrowMarkerPath" style="stroke-width: 2; stroke-dasharray: 1, 0;"></path></marker><marker id="mermaid-1787270281363_flowchart-crossStart" class="marker cross flowchart" viewBox="0 0 11 11" refX="-1" refY="5.2" markerUnits="userSpaceOnUse" markerWidth="11" markerHeight="11" orient="auto"><path d="M 1,1 l 9,9 M 10,1 l -9,9" class="arrowMarkerPath" style="stroke-width: 2; stroke-dasharray: 1, 0;"></path></marker><g class="root"><g class="clusters"><g class="cluster default flowchart-label" id="DataTier"><rect style="" rx="0" ry="0" x="-24.28125" y="498" width="262.578125" height="327.96524810791016"></rect><g class="cluster-label" transform="translate(-24.28125, 498)"><foreignObject width="262.578125" height="17"><div xmlns="http://www.w3.org/1999/xhtml" style="display: inline-block; white-space: nowrap;"><span class="nodeLabel">Persistence &amp; Data Access Tier (Bottom Right)</span></div></foreignObject></g></g><g class="cluster default flowchart-label" id="MLTier"><rect style="" rx="0" ry="0" x="636.59765625" y="689" width="522.5" height="277.96524810791016"></rect><g class="cluster-label" transform="translate(759.51171875, 689)"><foreignObject width="276.671875" height="17"><div xmlns="http://www.w3.org/1999/xhtml" style="display: inline-block; white-space: nowrap;"><span class="nodeLabel">Machine Learning &amp; Inference Tier (Bottom Left)</span></div></foreignObject></g></g><g class="cluster default flowchart-label" id="AppTier"><rect style="" rx="0" ry="0" x="234.015625" y="307" width="1220.75" height="315"></rect><g class="cluster-label" transform="translate(675.7890625, 307)"><foreignObject width="337.203125" height="17"><div xmlns="http://www.w3.org/1999/xhtml" style="display: inline-block; white-space: nowrap;"><span class="nodeLabel">Application &amp; Service Tier (FastAPI Engine - Middle Center)</span></div></foreignObject></g></g><g class="cluster default flowchart-label" id="Client"><rect style="" rx="0" ry="0" x="1474.765625" y="0" width="1077.5859375" height="431"></rect><g class="cluster-label" transform="translate(1911.43359375, 0)"><foreignObject width="204.25" height="17"><div xmlns="http://www.w3.org/1999/xhtml" style="display: inline-block; white-space: nowrap;"><span class="nodeLabel">Client &amp; Presentation Tier (Top Left)</span></div></foreignObject></g></g><g class="cluster default flowchart-label" id="OrchGroup"><rect style="" rx="0" ry="0" x="663.734375" y="332" width="771.03125" height="265"></rect><g class="cluster-label" transform="translate(960.84375, 332)"><foreignObject width="176.8125" height="17"><div xmlns="http://www.w3.org/1999/xhtml" style="display: inline-block; white-space: nowrap;"><span class="nodeLabel">Recommendation Orchestrator</span></div></foreignObject></g></g></g><g class="edgePaths"><path d="M1910.819,99L1936.682,108.75C1962.546,118.5,2014.273,138,2040.136,152.45C2066,166.9,2066,176.3,2066,181L2066,185.7" id="L-Speech-Mobile-0" class="edge-thickness-normal edge-pattern-solid flowchart-link LS-Speech LE-Mobile" style="fill:none;" marker-end="url(#mermaid-1787270281363_flowchart-pointEnd)"></path><path d="M2138.365,240L2154.856,245.583C2171.347,251.167,2204.33,262.333,2220.821,273.5C2237.313,284.667,2237.313,295.833,2237.313,305.583C2237.313,315.333,2237.313,323.667,2237.313,331.117C2237.313,338.567,2237.313,345.133,2237.313,348.417L2237.313,351.7" id="L-Mobile-Doc-0" class="edge-thickness-normal edge-pattern-solid flowchart-link LS-Mobile LE-Doc" style="fill:none;" marker-end="url(#mermaid-1787270281363_flowchart-pointEnd)"></path><path d="M973.158,397.5L961.766,403.083C950.374,408.667,927.589,419.833,916.197,431C904.805,442.167,904.805,453.333,904.805,464.5C904.805,475.667,904.805,486.833,904.805,497.117C904.805,507.4,904.805,516.8,904.805,521.5L904.805,526.2" id="L-Orch-CACP_Eng-0" class="edge-thickness-normal edge-pattern-solid flowchart-link LS-Orch LE-CACP_Eng" style="fill:none;" marker-end="url(#mermaid-1787270281363_flowchart-pointEnd)"></path><path d="M1038.451,397.5L1049.843,403.083C1061.236,408.667,1084.02,419.833,1095.412,431C1106.805,442.167,1106.805,453.333,1106.805,464.5C1106.805,475.667,1106.805,486.833,1106.805,497.117C1106.805,507.4,1106.805,516.8,1106.805,521.5L1106.805,526.2" id="L-Orch-Sow_Eng-0" class="edge-thickness-normal edge-pattern-solid flowchart-link LS-Orch LE-Sow_Eng" style="fill:none;" marker-end="url(#mermaid-1787270281363_flowchart-pointEnd)"></path><path d="M1094.772,397.5L1125.818,403.083C1156.864,408.667,1218.955,419.833,1250.001,431C1281.047,442.167,1281.047,453.333,1281.047,464.5C1281.047,475.667,1281.047,486.833,1285.13,497.321C1289.213,507.809,1297.38,517.618,1301.463,522.522L1305.546,527.427" id="L-Orch-Geo_Eng-0" class="edge-thickness-normal edge-pattern-solid flowchart-link LS-Orch LE-Geo_Eng" style="fill:none;" marker-end="url(#mermaid-1787270281363_flowchart-pointEnd)"></path><path d="M1972.376,240L1951.04,245.583C1929.704,251.167,1887.032,262.333,1865.695,273.5C1844.359,284.667,1844.359,295.833,1844.359,305.583C1844.359,315.333,1844.359,323.667,1721.466,335.088C1598.573,346.509,1352.788,361.018,1229.895,368.272L1107.002,375.526" id="L-Mobile-Orch-0" class="edge-thickness-normal edge-pattern-solid flowchart-link LS-Mobile LE-Orch" style="fill:none;" marker-end="url(#mermaid-1787270281363_flowchart-pointEnd)"></path><path d="M2066,240L2066,245.583C2066,251.167,2066,262.333,2066,273.5C2066,284.667,2066,295.833,2066,305.583C2066,315.333,2066,323.667,1906.168,335.296C1746.335,346.925,1426.67,361.85,1266.838,369.312L1107.005,376.775" id="L-Mobile-Orch-1" class="edge-thickness-normal edge-pattern-solid flowchart-link LS-Mobile LE-Orch" style="fill:none;" marker-end="url(#mermaid-1787270281363_flowchart-pointEnd)"></path><path d="M2185.305,233.541L2229.346,240.201C2273.388,246.861,2361.471,260.18,2405.513,272.423C2449.555,284.667,2449.555,295.833,2449.555,305.583C2449.555,315.333,2449.555,323.667,2449.555,336.083C2449.555,348.5,2449.555,365,2449.555,381.5C2449.555,398,2449.555,414.5,2269.381,428.333C2089.207,442.167,1728.859,453.333,1548.686,464.5C1368.512,475.667,1368.512,486.833,1363.898,497.355C1359.284,507.876,1350.055,517.752,1345.441,522.69L1340.827,527.628" id="L-Mobile-Geo_Eng-0" class="edge-thickness-normal edge-pattern-solid flowchart-link LS-Mobile LE-Geo_Eng" style="fill:none;" marker-end="url(#mermaid-1787270281363_flowchart-pointEnd)"></path><path d="M1765.689,99L1733.797,108.75C1701.905,118.5,1638.12,138,1606.228,157.417C1574.336,176.833,1574.336,196.167,1574.336,215.5C1574.336,234.833,1574.336,254.167,1574.336,269.417C1574.336,284.667,1574.336,295.833,1574.336,305.583C1574.336,315.333,1574.336,323.667,1385.397,335.486C1196.458,347.305,818.58,362.611,629.641,370.263L440.702,377.916" id="L-Speech-Audio_Eng-0" class="edge-thickness-normal edge-pattern-solid flowchart-link LS-Speech LE-Audio_Eng" style="fill:none;" marker-end="url(#mermaid-1787270281363_flowchart-pointEnd)"></path><path d="M1946.695,232.726L1899.629,239.522C1852.563,246.317,1758.43,259.909,1711.363,272.288C1664.297,284.667,1664.297,295.833,1664.297,305.583C1664.297,315.333,1664.297,323.667,1492.586,335.51C1320.874,347.353,977.452,362.706,805.74,370.383L634.029,378.059" id="L-Mobile-Auth_Svc-0" class="edge-thickness-normal edge-pattern-solid flowchart-link LS-Mobile LE-Auth_Svc" style="fill:none;" marker-end="url(#mermaid-1787270281363_flowchart-pointEnd)"></path><path d="M790.478,781.983L783.105,789.313C775.731,796.643,760.985,811.304,753.612,824.218C746.238,837.132,746.238,848.299,746.238,858.582C746.238,868.865,746.238,878.265,746.238,882.965L746.238,887.665" id="L-Sens-Yield_ML-0" class="edge-thickness-normal edge-pattern-solid flowchart-link LS-Sens LE-Yield_ML" style="fill:none;" marker-end="url(#mermaid-1787270281363_flowchart-pointEnd)"></path><path d="M853.392,781.983L864.843,789.313C876.294,796.643,899.196,811.304,910.647,824.218C922.098,837.132,922.098,848.299,929.989,858.986C937.881,869.673,953.664,879.88,961.556,884.983L969.447,890.087" id="L-Sens-Price_ML-0" class="edge-thickness-normal edge-pattern-solid flowchart-link LS-Sens LE-Price_ML" style="fill:none;" marker-end="url(#mermaid-1787270281363_flowchart-pointEnd)"></path><path d="M107.008,572L107.008,576.167C107.008,580.333,107.008,588.667,107.008,597C107.008,605.333,107.008,613.667,107.008,623.417C107.008,633.167,107.008,644.333,107.008,655.5C107.008,666.667,107.008,677.833,107.008,686.7C107.008,695.567,107.008,702.133,107.008,705.417L107.008,708.7" id="L-DAL-DB-0" class="edge-thickness-normal edge-pattern-solid flowchart-link LS-DAL LE-DB" style="fill:none;" marker-end="url(#mermaid-1787270281363_flowchart-pointEnd)"></path><path d="M875.816,563.5L865.7,569.083C855.584,574.667,835.353,585.833,825.237,595.583C815.121,605.333,815.121,613.667,815.121,623.417C815.121,633.167,815.121,644.333,815.121,655.5C815.121,666.667,815.121,677.833,815.121,689.864C815.121,701.894,815.121,714.788,815.121,721.236L815.121,727.683" id="L-CACP_Eng-Sens-0" class="edge-thickness-normal edge-pattern-solid flowchart-link LS-CACP_Eng LE-Sens" style="fill:none;" marker-end="url(#mermaid-1787270281363_flowchart-pointEnd)"></path><path d="M952.215,563.5L968.759,569.083C985.304,574.667,1018.392,585.833,1034.936,595.583C1051.48,605.333,1051.48,613.667,1051.48,623.417C1051.48,633.167,1051.48,644.333,1051.48,655.5C1051.48,666.667,1051.48,677.833,1051.48,694.83C1051.48,711.828,1051.48,734.655,1051.48,757.483C1051.48,780.31,1051.48,803.138,1051.48,820.135C1051.48,837.132,1051.48,848.299,1048.158,858.736C1044.835,869.174,1038.19,878.883,1034.867,883.737L1031.544,888.592" id="L-CACP_Eng-Price_ML-0" class="edge-thickness-normal edge-pattern-solid flowchart-link LS-CACP_Eng LE-Price_ML" style="fill:none;" marker-end="url(#mermaid-1787270281363_flowchart-pointEnd)"></path><path d="M352.211,406L352.211,410.167C352.211,414.333,352.211,422.667,352.211,432.417C352.211,442.167,352.211,453.333,352.211,464.5C352.211,475.667,352.211,486.833,324.211,498.069C296.211,509.305,240.211,520.61,212.211,526.262L184.211,531.915" id="L-Audio_Eng-DAL-0" class="edge-thickness-normal edge-pattern-solid flowchart-link LS-Audio_Eng LE-DAL" style="fill:none;" marker-end="url(#mermaid-1787270281363_flowchart-pointEnd)"></path><path d="M557.07,406L557.07,410.167C557.07,414.333,557.07,422.667,557.07,432.417C557.07,442.167,557.07,453.333,557.07,464.5C557.07,475.667,557.07,486.833,494.939,499.25C432.808,511.667,308.546,525.334,246.415,532.167L184.284,539.001" id="L-Auth_Svc-DAL-0" class="edge-thickness-normal edge-pattern-solid flowchart-link LS-Auth_Svc LE-DAL" style="fill:none;" marker-end="url(#mermaid-1787270281363_flowchart-pointEnd)"></path><path d="M234.016,502.279L183.316,538.801" id="L-AppTier-DAL-0" class="edge-thickness-normal edge-pattern-solid flowchart-link LS-AppTier LE-DAL" style="fill:none;" marker-end="url(#mermaid-1787270281363_flowchart-pointEnd)"></path></g><g class="edgeLabels"><g class="edgeLabel" transform="translate(2066, 157.5)"><g class="label" transform="translate(-55.7421875, -8.5)"><foreignObject width="111.484375" height="17"><div xmlns="http://www.w3.org/1999/xhtml" style="display: inline-block; white-space: nowrap;"><span class="edgeLabel">native audio bridge</span></div></foreignObject></g></g><g class="edgeLabel" transform="translate(2237.3125, 273.5)"><g class="label" transform="translate(-39.7734375, -8.5)"><foreignObject width="79.546875" height="17"><div xmlns="http://www.w3.org/1999/xhtml" style="display: inline-block; white-space: nowrap;"><span class="edgeLabel">canvas render</span></div></foreignObject></g></g><g class="edgeLabel" transform="translate(904.8046875, 464.5)"><g class="label" transform="translate(-81.8984375, -8.5)"><foreignObject width="163.796875" height="17"><div xmlns="http://www.w3.org/1999/xhtml" style="display: inline-block; white-space: nowrap;"><span class="edgeLabel">Calculate Cost &amp; Deductions</span></div></foreignObject></g></g><g class="edgeLabel" transform="translate(1106.8046875, 464.5)"><g class="label" transform="translate(-63.34375, -8.5)"><foreignObject width="126.6875" height="17"><div xmlns="http://www.w3.org/1999/xhtml" style="display: inline-block; white-space: nowrap;"><span class="edgeLabel">Validate Sowing Delay</span></div></foreignObject></g></g><g class="edgeLabel" transform="translate(1281.046875, 464.5)"><g class="label" transform="translate(-62.421875, -8.5)"><foreignObject width="124.84375" height="17"><div xmlns="http://www.w3.org/1999/xhtml" style="display: inline-block; white-space: nowrap;"><span class="edgeLabel">Discover Viable Crops</span></div></foreignObject></g></g><g class="edgeLabel" transform="translate(1844.359375, 273.5)"><g class="label" transform="translate(-90.1015625, -8.5)"><foreignObject width="180.203125" height="17"><div xmlns="http://www.w3.org/1999/xhtml" style="display: inline-block; white-space: nowrap;"><span class="edgeLabel">POST /api/v1/crop/recommend</span></div></foreignObject></g></g><g class="edgeLabel" transform="translate(2066, 273.5)"><g class="label" transform="translate(-111.5390625, -8.5)"><foreignObject width="223.078125" height="17"><div xmlns="http://www.w3.org/1999/xhtml" style="display: inline-block; white-space: nowrap;"><span class="edgeLabel">POST /api/v1/farm/assess-risk-weather</span></div></foreignObject></g></g><g class="edgeLabel" transform="translate(2449.5546875, 381.5)"><g class="label" transform="translate(-82.796875, -8.5)"><foreignObject width="165.59375" height="17"><div xmlns="http://www.w3.org/1999/xhtml" style="display: inline-block; white-space: nowrap;"><span class="edgeLabel">GET /api/v1/crop/local-crops</span></div></foreignObject></g></g><g class="edgeLabel" transform="translate(1574.3359375, 215.5)"><g class="label" transform="translate(-49.78125, -8.5)"><foreignObject width="99.5625" height="17"><div xmlns="http://www.w3.org/1999/xhtml" style="display: inline-block; white-space: nowrap;"><span class="edgeLabel">GET /api/v1/tts/...</span></div></foreignObject></g></g><g class="edgeLabel" transform="translate(1664.296875, 273.5)"><g class="label" transform="translate(-69.9609375, -8.5)"><foreignObject width="139.921875" height="17"><div xmlns="http://www.w3.org/1999/xhtml" style="display: inline-block; white-space: nowrap;"><span class="edgeLabel">POST /api/v1/auth/login</span></div></foreignObject></g></g><g class="edgeLabel" transform="translate(746.23828125, 859.4652481079102)"><g class="label" transform="translate(-58.3671875, -8.5)"><foreignObject width="116.734375" height="17"><div xmlns="http://www.w3.org/1999/xhtml" style="display: inline-block; white-space: nowrap;"><span class="edgeLabel">Simulate Gross Yield</span></div></foreignObject></g></g><g class="edgeLabel" transform="translate(922.09765625, 859.4652481079102)"><g class="label" transform="translate(-59.3984375, -8.5)"><foreignObject width="118.796875" height="17"><div xmlns="http://www.w3.org/1999/xhtml" style="display: inline-block; white-space: nowrap;"><span class="edgeLabel">Simulate Price Shock</span></div></foreignObject></g></g><g class="edgeLabel" transform="translate(107.0078125, 655.5)"><g class="label" transform="translate(-42.0625, -8.5)"><foreignObject width="84.125" height="17"><div xmlns="http://www.w3.org/1999/xhtml" style="display: inline-block; white-space: nowrap;"><span class="edgeLabel">psycopg2 Pool</span></div></foreignObject></g></g><g class="edgeLabel" transform="translate(815.12109375, 655.5)"><g class="label" transform="translate(-102.3125, -8.5)"><foreignObject width="204.625" height="17"><div xmlns="http://www.w3.org/1999/xhtml" style="display: inline-block; white-space: nowrap;"><span class="edgeLabel">POST /api/v1/crop/what-if-simulate</span></div></foreignObject></g></g><g class="edgeLabel" transform="translate(1051.48046875, 757.4826240539551)"><g class="label" transform="translate(-70.921875, -8.5)"><foreignObject width="141.84375" height="17"><div xmlns="http://www.w3.org/1999/xhtml" style="display: inline-block; white-space: nowrap;"><span class="edgeLabel">Forecast Wholesale Price</span></div></foreignObject></g></g><g class="edgeLabel" transform="translate(352.2109375, 464.5)"><g class="label" transform="translate(-77.1015625, -8.5)"><foreignObject width="154.203125" height="17"><div xmlns="http://www.w3.org/1999/xhtml" style="display: inline-block; white-space: nowrap;"><span class="edgeLabel">Audio Log Instrumentation</span></div></foreignObject></g></g><g class="edgeLabel" transform="translate(557.0703125, 464.5)"><g class="label" transform="translate(-53.359375, -8.5)"><foreignObject width="106.71875" height="17"><div xmlns="http://www.w3.org/1999/xhtml" style="display: inline-block; white-space: nowrap;"><span class="edgeLabel">Query Farm Profile</span></div></foreignObject></g></g><g class="edgeLabel" transform="translate(206.51563, 522.08846)"><g class="label" transform="translate(-59.5859375, -8.5)"><foreignObject width="119.171875" height="17"><div xmlns="http://www.w3.org/1999/xhtml" style="display: inline-block; white-space: nowrap;"><span class="edgeLabel">Read / Write Queries</span></div></foreignObject></g></g></g><g class="nodes"><g class="node default default flowchart-label" id="flowchart-DAL-40" data-node="true" data-id="DAL" transform="translate(107.0078125, 547.5)"><rect class="basic label-container" style="" rx="0" ry="0" x="-72.0078125" y="-24.5" width="144.015625" height="49"></rect><g class="label" style="" transform="translate(-64.5078125, -17)"><rect></rect><foreignObject width="129.015625" height="34"><div xmlns="http://www.w3.org/1999/xhtml" style="display: inline-block; white-space: nowrap;"><span class="nodeLabel">Database Access Layer<br>[SQLAlchemy ORM]</span></div></foreignObject></g></g><g class="node default default flowchart-label" id="flowchart-DB-41" data-node="true" data-id="DB" transform="translate(107.0078125, 757.4826240539551)"><path style="" d="M 0,12.655083019566694 a 64.0703125,12.655083019566694 0,0,0 128.140625 0 a 64.0703125,12.655083019566694 0,0,0 -128.140625 0 l 0,61.655083019566696 a 64.0703125,12.655083019566694 0,0,0 128.140625 0 l 0,-61.655083019566696" transform="translate(-64.0703125,-43.48262452935004)"></path><g class="label" style="" transform="translate(-56.5703125, -17)"><rect></rect><foreignObject width="113.140625" height="34"><div xmlns="http://www.w3.org/1999/xhtml" style="display: inline-block; white-space: nowrap;"><span class="nodeLabel">Relational Database<br>[PostgreSQL 16]</span></div></foreignObject></g></g><g class="node default default flowchart-label" id="flowchart-Sens-33" data-node="true" data-id="Sens" transform="translate(815.12109375, 757.4826240539551)"><rect class="basic label-container" style="" rx="0" ry="0" x="-73.4453125" y="-24.5" width="146.890625" height="49"></rect><g class="label" style="" transform="translate(-65.9453125, -17)"><rect></rect><foreignObject width="131.890625" height="34"><div xmlns="http://www.w3.org/1999/xhtml" style="display: inline-block; white-space: nowrap;"><span class="nodeLabel">Sensitivity Simulator<br>[What-If Stress Testing]</span></div></foreignObject></g></g><g class="node default default flowchart-label" id="flowchart-Yield_ML-34" data-node="true" data-id="Yield_ML" transform="translate(746.23828125, 917.4652481079102)"><rect class="basic label-container" style="" rx="0" ry="0" x="-74.640625" y="-24.5" width="149.28125" height="49"></rect><g class="label" style="" transform="translate(-67.140625, -17)"><rect></rect><foreignObject width="134.28125" height="34"><div xmlns="http://www.w3.org/1999/xhtml" style="display: inline-block; white-space: nowrap;"><span class="nodeLabel">Yield Regression Model<br>[XGBoost Regressor]</span></div></foreignObject></g></g><g class="node default default flowchart-label" id="flowchart-Price_ML-35" data-node="true" data-id="Price_ML" transform="translate(1011.78125, 917.4652481079102)"><rect class="basic label-container" style="" rx="0" ry="0" x="-89.3125" y="-24.5" width="178.625" height="49"></rect><g class="label" style="" transform="translate(-81.8125, -17)"><rect></rect><foreignObject width="163.625" height="34"><div xmlns="http://www.w3.org/1999/xhtml" style="display: inline-block; white-space: nowrap;"><span class="nodeLabel">Mandi Price Model<br>[Time-Series Seasonal Index]</span></div></foreignObject></g></g><g class="node default default flowchart-label" id="flowchart-Audio_Eng-21" data-node="true" data-id="Audio_Eng" transform="translate(352.2109375, 381.5)"><rect class="basic label-container" style="" rx="0" ry="0" x="-83.1953125" y="-24.5" width="166.390625" height="49"></rect><g class="label" style="" transform="translate(-75.6953125, -17)"><rect></rect><foreignObject width="151.390625" height="34"><div xmlns="http://www.w3.org/1999/xhtml" style="display: inline-block; white-space: nowrap;"><span class="nodeLabel">Indic Audio Stream Engine<br>[Bhashini Bridge]</span></div></foreignObject></g></g><g class="node default default flowchart-label" id="flowchart-Auth_Svc-22" data-node="true" data-id="Auth_Svc" transform="translate(557.0703125, 381.5)"><rect class="basic label-container" style="" rx="0" ry="0" x="-71.6640625" y="-24.5" width="143.328125" height="49"></rect><g class="label" style="" transform="translate(-64.1640625, -17)"><rect></rect><foreignObject width="128.328125" height="34"><div xmlns="http://www.w3.org/1999/xhtml" style="display: inline-block; white-space: nowrap;"><span class="nodeLabel">Authentication Service<br>[JWT Session]</span></div></foreignObject></g></g><g class="node default default flowchart-label" id="flowchart-Orch-11" data-node="true" data-id="Orch" transform="translate(1005.8046875, 381.5)"><rect class="basic label-container" style="" rx="0" ry="0" x="-95.90625" y="-16" width="191.8125" height="32"></rect><g class="label" style="" transform="translate(-88.40625, -8.5)"><rect></rect><foreignObject width="176.8125" height="17"><div xmlns="http://www.w3.org/1999/xhtml" style="display: inline-block; white-space: nowrap;"><span class="nodeLabel">Recommendation Orchestrator</span></div></foreignObject></g></g><g class="node default default flowchart-label" id="flowchart-CACP_Eng-12" data-node="true" data-id="CACP_Eng" transform="translate(904.8046875, 547.5)"><rect class="basic label-container" style="" rx="0" ry="0" x="-76.7890625" y="-16" width="153.578125" height="32"></rect><g class="label" style="" transform="translate(-69.2890625, -8.5)"><rect></rect><foreignObject width="138.578125" height="17"><div xmlns="http://www.w3.org/1999/xhtml" style="display: inline-block; white-space: nowrap;"><span class="nodeLabel">CACP Economics Engine</span></div></foreignObject></g></g><g class="node default default flowchart-label" id="flowchart-Sow_Eng-13" data-node="true" data-id="Sow_Eng" transform="translate(1106.8046875, 547.5)"><rect class="basic label-container" style="" rx="0" ry="0" x="-75.2109375" y="-16" width="150.421875" height="32"></rect><g class="label" style="" transform="translate(-67.7109375, -8.5)"><rect></rect><foreignObject width="135.421875" height="17"><div xmlns="http://www.w3.org/1999/xhtml" style="display: inline-block; white-space: nowrap;"><span class="nodeLabel">Sowing Window Engine</span></div></foreignObject></g></g><g class="node default default flowchart-label" id="flowchart-Geo_Eng-14" data-node="true" data-id="Geo_Eng" transform="translate(1322.2578125, 547.5)"><rect class="basic label-container" style="" rx="0" ry="0" x="-77.5078125" y="-16" width="155.015625" height="32"></rect><g class="label" style="" transform="translate(-70.0078125, -8.5)"><rect></rect><foreignObject width="140.015625" height="17"><div xmlns="http://www.w3.org/1999/xhtml" style="display: inline-block; white-space: nowrap;"><span class="nodeLabel">Geo-Agronomics Engine</span></div></foreignObject></g></g><g class="root" transform="translate(512.828125, 17)"><g class="clusters"><g class="cluster default flowchart-label" id="Repos"><rect style="" rx="0" ry="0" x="8" y="8" width="919.4375" height="99"></rect><g class="cluster-label" transform="translate(319.0625, 8)"><foreignObject width="297.3125" height="17"><div xmlns="http://www.w3.org/1999/xhtml" style="display: inline-block; white-space: nowrap;"><span class="nodeLabel">Government &amp; Spatial Data Repositories (Top Right)</span></div></foreignObject></g></g></g><g class="edgePaths"></g><g class="edgeLabels"></g><g class="nodes"><g class="node default default flowchart-label" id="flowchart-CACP-7" data-node="true" data-id="CACP" transform="translate(135.1640625, 57.5)"><rect class="basic label-container" style="" rx="0" ry="0" x="-92.1640625" y="-24.5" width="184.328125" height="49"></rect><g class="label" style="" transform="translate(-84.6640625, -17)"><rect></rect><foreignObject width="169.328125" height="34"><div xmlns="http://www.w3.org/1999/xhtml" style="display: inline-block; white-space: nowrap;"><span class="nodeLabel">CACP Production Cost Norms<br>[Itemized A2+FL Database]</span></div></foreignObject></g></g><g class="node default default flowchart-label" id="flowchart-Soil-8" data-node="true" data-id="Soil" transform="translate(356.0390625, 57.5)"><rect class="basic label-container" style="" rx="0" ry="0" x="-78.7109375" y="-24.5" width="157.421875" height="49"></rect><g class="label" style="" transform="translate(-71.2109375, -17)"><rect></rect><foreignObject width="142.421875" height="34"><div xmlns="http://www.w3.org/1999/xhtml" style="display: inline-block; white-space: nowrap;"><span class="nodeLabel">ISRIC SoilGrids 250m GIS<br>[Spatial Soil Profiling]</span></div></foreignObject></g></g><g class="node default default flowchart-label" id="flowchart-Mandi-9" data-node="true" data-id="Mandi" transform="translate(578.8203125, 57.5)"><rect class="basic label-container" style="" rx="0" ry="0" x="-94.0703125" y="-24.5" width="188.140625" height="49"></rect><g class="label" style="" transform="translate(-86.5703125, -17)"><rect></rect><foreignObject width="173.140625" height="34"><div xmlns="http://www.w3.org/1999/xhtml" style="display: inline-block; white-space: nowrap;"><span class="nodeLabel">AgMarknet APMC Mandi Data<br>[14,786 Records]</span></div></foreignObject></g></g><g class="node default default flowchart-label" id="flowchart-ICAR-10" data-node="true" data-id="ICAR" transform="translate(807.6640625, 57.5)"><rect class="basic label-container" style="" rx="0" ry="0" x="-84.7734375" y="-24.5" width="169.546875" height="49"></rect><g class="label" style="" transform="translate(-77.2734375, -17)"><rect></rect><foreignObject width="154.546875" height="34"><div xmlns="http://www.w3.org/1999/xhtml" style="display: inline-block; white-space: nowrap;"><span class="nodeLabel">ICAR / ICRISAT Portal<br>[Agro-Windows &amp; Bounds]</span></div></foreignObject></g></g></g></g><g class="node default default flowchart-label" id="flowchart-Speech-0" data-node="true" data-id="Speech" transform="translate(1845.828125, 74.5)"><rect class="basic label-container" style="" rx="0" ry="0" x="-94.359375" y="-24.5" width="188.71875" height="49"></rect><g class="label" style="" transform="translate(-86.859375, -17)"><rect></rect><foreignObject width="173.71875" height="34"><div xmlns="http://www.w3.org/1999/xhtml" style="display: inline-block; white-space: nowrap;"><span class="nodeLabel">Indic Speech Subsystem<br>[Capacitor TTS + Web Speech]</span></div></foreignObject></g></g><g class="node default default flowchart-label" id="flowchart-Mobile-1" data-node="true" data-id="Mobile" transform="translate(2066, 215.5)"><rect class="basic label-container" style="" rx="0" ry="0" x="-119.3046875" y="-24.5" width="238.609375" height="49"></rect><g class="label" style="" transform="translate(-111.8046875, -17)"><rect></rect><foreignObject width="223.609375" height="34"><div xmlns="http://www.w3.org/1999/xhtml" style="display: inline-block; white-space: nowrap;"><span class="nodeLabel">Android Mobile App &amp; PWA<br>[React + TypeScript + Vite + Capacitor]</span></div></foreignObject></g></g><g class="node default default flowchart-label" id="flowchart-Doc-2" data-node="true" data-id="Doc" transform="translate(2237.3125, 381.5)"><rect class="basic label-container" style="" rx="0" ry="0" x="-94.4453125" y="-24.5" width="188.890625" height="49"></rect><g class="label" style="" transform="translate(-86.9453125, -17)"><rect></rect><foreignObject width="173.890625" height="34"><div xmlns="http://www.w3.org/1999/xhtml" style="display: inline-block; white-space: nowrap;"><span class="nodeLabel">Advisory Document Generator<br>[jsPDF Vector Engine]</span></div></foreignObject></g></g></g></g></g></svg>